<?xml version="1.0" encoding="utf-8"?>
<!-- Generator: Adobe Illustrator 24.2.3, SVG Export Plug-In . SVG Version: 6.00 Build 0)  -->
<svg version="1.1" id="Layer_1" xmlns="http://www.w3.org/2000/svg" xmlns:xlink="http://www.w3.org/1999/xlink" x="0px" y="0px"
	 viewBox="0 0 1366 768" style="enable-background:new 0 0 1366 768;" xml:space="preserve">
<style type="text/css">
	.st0{fill:#27A3A3;stroke:#000000;stroke-miterlimit:10;}
</style>
<path class="st0" d="M243.75,572.9c62.99,76.06,158.14,124.53,264.61,124.53c106.47,0,201.6-48.47,264.59-124.53
	c-1.76-0.91-3.38-2.06-5.22-2.83c0,0-17.59-8.44-51.02-19.61c-33.5-11.15-82.53-22.44-82.53-22.44c-9.19-3.14-17.46-7.74-24.44-13.4
	L508.36,638.22l-101.4-123.59c-6.93,5.66-15.22,10.26-24.42,13.4c0,0-49.02,11.29-82.5,22.44C266.54,561.64,249,570.08,249,570.08
	C247.16,570.85,245.52,571.99,243.75,572.9"/>
<g>
	<path class="st0" d="M369.5,330.59c4.16,19.01,14.39,33.61,25.14,37.87c6.7,30.08,16.2,65.12,35.45,87.48
		c15.74,18.31,42.36,51.09,77.46,51.09v0.23c35.09,0,62.5-32.76,78.27-51.05c19.24-22.37,28.73-57.41,35.41-87.48
		c11.09-3.8,21.72-18.63,26.02-38.13c4.85-22.03-0.14-42.14-11.15-48.18c5.8-31.24,8.78-72.71-2.73-113.26
		c-9.88-35.17-84.94-99.51-186.04-57.36c-62.44,26.01-54.08,60.96-54.08,60.96s-16.06,24.86-18.11,64.57
		c-0.68,13.2,2.41,29.14,6.83,44.55C370.05,286.96,364.43,307.71,369.5,330.59z"/>
</g>
</svg>
