<?xml version="1.0" encoding="utf-8"?>
<!-- Generator: Adobe Illustrator 24.2.3, SVG Export Plug-In . SVG Version: 6.00 Build 0)  -->
<svg version="1.1" id="Layer_1" xmlns="http://www.w3.org/2000/svg" xmlns:xlink="http://www.w3.org/1999/xlink" x="0px" y="0px"
	 viewBox="0 0 1366 768" style="enable-background:new 0 0 1366 768;" xml:space="preserve">
<style type="text/css">
	.st0{fill:#27A3A3;stroke:#000000;stroke-miterlimit:10;}
</style>
<g>
	<path class="st0" d="M837.89,83.84H528.08c-11.15,0-20.19,9.04-20.19,20.19v558.99c0,11.15,9.04,20.21,20.19,20.21h309.81
		c11.15,0,20.19-9.06,20.19-20.21V104.03C858.09,92.88,849.05,83.84,837.89,83.84z M744.04,650.63H621.93
		c-8.05,0-14.57-6.52-14.57-14.57c0-8.05,6.52-14.57,14.57-14.57h122.11c8.05,0,14.57,6.52,14.57,14.57
		C758.61,644.11,752.09,650.63,744.04,650.63z M823.88,588.9H542.09V142.13h281.78V588.9z"/>
</g>
</svg>
